<?xml version="1.0" encoding="UTF-8" standalone="no"?>
<!-- Created with Inkscape (http://www.inkscape.org/) -->

<svg
   xmlns:dc="http://purl.org/dc/elements/1.1/"
   xmlns:cc="http://creativecommons.org/ns#"
   xmlns:rdf="http://www.w3.org/1999/02/22-rdf-syntax-ns#"
   xmlns:svg="http://www.w3.org/2000/svg"
   xmlns="http://www.w3.org/2000/svg"
   version="1.1"
   width="277.90625"
   height="293.9375"
   id="svg2">
  <defs
     id="defs4">
    <marker
       refX="0"
       refY="0"
       orient="auto"
       id="Arrow1Lstart"
       style="overflow:visible">
      <path
         d="M 0,0 5,-5 -12.5,0 5,5 0,0 z"
         transform="matrix(0.8,0,0,0.8,10,0)"
         id="path3764"
         style="fill-rule:evenodd;stroke:#000000;stroke-width:1pt" />
    </marker>
  </defs>
  <metadata
     id="metadata7">
    <rdf:RDF>
      <cc:Work
         rdf:about="">
        <dc:format>image/svg+xml</dc:format>
        <dc:type
           rdf:resource="http://purl.org/dc/dcmitype/StillImage" />
        <dc:title></dc:title>
      </cc:Work>
    </rdf:RDF>
  </metadata>
  <g
     transform="translate(-172.4375,-232.15625)"
     id="layer1">
    <path
       d="m 367.375,237.15625 -33.96875,4.96875 -33.9375,4.9375 L 320.71875,274 342,300.9375 350.03125,280.75 c 38.34228,15.28741 65.3125,52.6828 65.3125,96.59375 0,50.66217 -35.90474,92.64133 -83.75,102 l 0,30.40625 c 64.25527,-9.79468 113.75,-65.48231 113.75,-132.40625 0,-56.24035 -34.95652,-104.56392 -84.25,-124.375 l 6.28125,-15.8125 z m -76.1875,7.75 c -64.27955,9.77404 -113.75,65.49283 -113.75,132.4375 0,56.24759 34.93046,104.54831 84.21875,124.34375 l -7.71875,19.40625 33.96875,-4.96875 33.9375,-4.9375 -21.25,-26.9375 -21.28125,-26.9375 -6.59375,16.5625 c -38.32629,-15.28083 -65.28125,-52.62558 -65.28125,-96.53125 0,-50.67279 35.89552,-92.67848 83.75,-102.03125 l 0,-30.40625 z"
       id="path5328"
       style="font-size:medium;font-style:normal;font-variant:normal;font-weight:normal;font-stretch:normal;text-indent:0;text-align:start;text-decoration:none;line-height:normal;letter-spacing:normal;word-spacing:normal;text-transform:none;direction:ltr;block-progression:tb;writing-mode:lr-tb;text-anchor:start;baseline-shift:baseline;color:#000000;fill:#b3b3b3;fill-opacity:1;stroke:none;stroke-width:30;marker:none;visibility:visible;display:inline;overflow:visible;enable-background:accumulate;font-family:Sans;-inkscape-font-specification:Sans" />
  </g>
</svg>
